<svg width="103" height="29" viewBox="0 0 103 29" fill="none" xmlns="http://www.w3.org/2000/svg">
<g clip-path="url(#clip0_24_2264)">
<mask id="mask0_24_2264" style="mask-type:luminance" maskUnits="userSpaceOnUse" x="0" y="0" width="103" height="29">
<path d="M0 0H102.092V29H0V0Z" fill="white"/>
</mask>
<g mask="url(#mask0_24_2264)">
<path d="M15.8708 28.9401C15.3369 28.9557 14.8173 28.7662 14.4184 28.4106C14.0195 28.055 13.7716 27.5601 13.7254 27.0275L13.484 25.1333C11.1846 24.4774 9.83943 22.7742 9.48997 20.0698L7.42047 4.11062C6.97655 4.03911 6.5272 4.00677 6.07762 4.01395C5.41217 4.0085 4.74912 4.09446 4.10702 4.26943V28.4729H0.0462646V9.01762C0.0462646 6.37768 1.23046 4.5134 3.3873 3.73776V2.4834C3.3873 1.0334 4.26798 0.059822 5.57634 0.059822C6.88471 0.059822 7.7056 0.874581 7.91714 2.36141L8.07808 3.52371C10.4396 4.18427 11.8192 6.08308 12.2285 9.16488L14.1417 24.5487C15.2847 24.7697 16.4593 24.7697 17.6022 24.5487L19.5154 9.16721C19.9155 6.08308 21.3112 4.18427 23.6658 3.5168L23.8268 2.35451C24.0383 0.874581 24.8707 0.0529175 26.1676 0.0529175C27.4644 0.0529175 28.3566 1.02649 28.3566 2.47649V3.73086C30.5134 4.50649 31.6976 6.37077 31.6976 9.01069V28.466H27.6323V4.26712C26.9902 4.09215 26.3271 4.00619 25.6617 4.01165C25.2121 4.00446 24.7627 4.03681 24.3188 4.10831L22.2493 20.0698C21.9067 22.7258 20.5294 24.4704 18.2553 25.1333L18.0277 27.0298C17.9921 27.5684 17.7456 28.0713 17.3417 28.429C16.9379 28.7868 16.4093 28.9704 15.8708 28.9401ZM14.2359 25.3175L14.4452 26.9493C14.4671 27.3071 14.6291 27.6418 14.896 27.881C15.1628 28.1201 15.513 28.2443 15.8708 28.2267C16.0488 28.2395 16.2275 28.2163 16.3964 28.1587C16.5653 28.1012 16.721 28.0102 16.8541 27.8913C16.9873 27.7724 17.0952 27.628 17.1716 27.4665C17.248 27.3051 17.2912 27.1301 17.2987 26.9515L17.508 25.3175C16.4245 25.4954 15.3194 25.4954 14.2359 25.3175ZM28.3566 27.7594H30.9733V9.01762C30.9733 6.78045 30.0719 5.23609 28.3566 4.51569V27.7594ZM0.76368 27.7594H3.3873V4.51569C1.67425 5.23609 0.782076 6.78045 0.782076 9.01762L0.76368 27.7594ZM8.18159 4.30855L10.2097 19.9754C10.4994 22.2425 11.5686 23.7086 13.3852 24.3485L11.5111 9.25469C11.1662 6.59403 10.074 4.96911 8.18159 4.30855ZM23.5623 4.30855C21.6699 4.96911 20.5731 6.59403 20.2328 9.25695L18.3587 24.3393C20.1776 23.6994 21.2446 22.2333 21.5342 19.9662L23.5623 4.30855ZM4.11162 3.5076C4.75663 3.35061 5.41842 3.27331 6.08222 3.27744C6.49732 3.27306 6.91222 3.29767 7.32389 3.35109L7.19973 2.44657C7.04107 1.3372 6.49381 0.775616 5.57634 0.775616C4.65888 0.775616 4.11162 1.42697 4.11162 2.47419V3.5076ZM25.6617 3.27744C26.3254 3.27331 26.9873 3.35061 27.6323 3.5076V2.4834C27.6323 1.43617 27.0712 0.784823 26.1676 0.784823C25.2639 0.784823 24.7028 1.34641 24.5442 2.45577L24.42 3.3603C24.8317 3.30687 25.2466 3.28226 25.6617 3.28665V3.27744Z" fill="#2D2D2D"/>
<path d="M42.9071 28.4729H38.9176V0.527039H42.9071V28.4729ZM39.642 27.7479H42.1828V1.25204H39.642V27.7479Z" fill="#2D2D2D"/>
<path d="M68.7893 28.9401C67.0578 28.9401 66.6624 27.359 66.5336 26.8388L66.2346 25.5131C63.6432 25.0528 62.0612 23.3795 61.4059 20.4128L57.651 4.0899C57.2215 4.03606 56.7892 4.00992 56.3564 4.01164C55.6377 3.99998 54.9214 4.09698 54.2317 4.29934V28.466H50.1664V8.9025C50.1664 6.37077 51.3161 4.61005 53.5074 3.78609V2.48339C53.5074 1.03338 54.3858 0.0598145 55.6942 0.0598145C56.8232 0.0598145 57.6532 0.777909 57.9154 1.97934L58.2488 3.45236C60.7781 3.91267 62.2958 5.53759 63.0017 8.55039L66.8302 24.8755C67.2612 24.9293 67.6951 24.9554 68.1294 24.9538C68.8451 24.9593 69.5585 24.8719 70.2517 24.6937V0.527038H74.3171V20.7143C74.3171 22.7857 73.1053 24.4106 70.9761 25.2093V26.4682C70.9761 27.9965 70.1391 28.9401 68.7893 28.9401ZM67.005 25.6282L67.2349 26.6708C67.5085 27.7664 67.9593 28.2151 68.787 28.2151C69.7067 28.2151 70.2494 27.5822 70.2494 26.4775V25.4371C69.5534 25.5965 68.8411 25.6738 68.1271 25.6673C67.7523 25.6681 67.3778 25.6498 67.005 25.6121V25.6236V25.6282ZM50.8907 27.7479H53.5074V4.56402C51.769 5.31664 50.8907 6.77355 50.8907 8.90024V27.7479ZM58.4258 4.22569L62.1049 20.2516C62.6751 22.8179 63.9444 24.2564 66.0507 24.7375L62.2981 8.7115C61.6864 6.10838 60.4839 4.70212 58.4258 4.22569ZM70.9761 1.25204V24.4382C72.6684 23.7201 73.5927 22.4151 73.5927 20.7235V1.25204H70.9761ZM54.2317 3.53521C54.9255 3.35616 55.6399 3.26949 56.3564 3.27744C56.7311 3.27655 57.1057 3.29499 57.4785 3.33267V3.32116L57.2072 2.12664C57.0968 1.62029 56.7473 0.775608 55.6942 0.775608C54.641 0.775608 54.2317 1.65251 54.2317 2.47418V3.53521Z" fill="#2D2D2D"/>
<path d="M102.232 28.4729H97.9781L95.8812 20.1504H84.0895L82.0313 28.4729H77.7776L83.2638 8.26038C83.8986 5.95187 85.3494 4.37298 87.4696 3.68251L87.849 2.09441C88.0786 1.2198 88.5386 0.0667114 89.9894 0.0667114C91.441 0.0667114 91.9026 1.21751 92.1282 2.08751L92.5027 3.68251C94.6181 4.37298 96.0697 5.95877 96.7061 8.26497L102.232 28.4729ZM98.5412 27.7479H101.282L96.0077 8.45137C95.4857 6.55719 94.3539 5.21306 92.717 4.53869L95.9771 17.4299H84.0436L87.2626 4.52719C85.6233 5.21766 84.4915 6.55489 83.9703 8.43985L78.7318 27.7479H81.4731L83.5305 19.4254H96.4371L98.5412 27.7479ZM84.9748 16.7003H95.0419L91.905 4.24869C90.6483 3.92876 89.3313 3.92876 88.0746 4.24869L84.9748 16.7003ZM88.2744 3.43393V3.46155C89.407 3.22908 90.575 3.22908 91.7077 3.46155V3.43163L91.4265 2.25091C91.1534 1.19449 90.7507 0.780203 89.9918 0.780203C89.233 0.780203 88.831 1.19449 88.5547 2.25783L88.2744 3.43163V3.43393Z" fill="#2D2D2D"/>
</g>
</g>
<defs>
<clipPath id="clip0_24_2264">
<rect width="102.306" height="29" fill="white"/>
</clipPath>
</defs>
</svg>
