<svg width="21" height="22" viewBox="0 0 21 22" fill="none" xmlns="http://www.w3.org/2000/svg">
<path d="M10.4993 20.9978C10.1619 21.0085 9.83357 20.8774 9.58151 20.6312C9.32949 20.385 9.17282 20.0424 9.14365 19.6737L8.9911 18.3624C7.53816 17.9083 6.68815 16.7293 6.46734 14.8571L5.15965 3.80903C4.87914 3.75952 4.5952 3.73713 4.31112 3.74211C3.89063 3.73833 3.47166 3.79784 3.06593 3.91896V20.6743H0.5V7.206C0.5 5.37844 1.24828 4.08786 2.61115 3.55091V2.68255C2.61115 1.67876 3.16764 1.00478 3.99437 1.00478C4.82111 1.00478 5.33981 1.56881 5.47349 2.5981L5.57518 3.40273C7.06737 3.86001 7.93916 5.1745 8.19779 7.30794L9.40666 17.9577C10.1289 18.1107 10.8712 18.1107 11.5934 17.9577L12.8022 7.30956C13.055 5.1745 13.937 3.86001 15.4248 3.39794L15.5265 2.59332C15.6602 1.56881 16.1862 1 17.0056 1C17.8251 1 18.3888 1.67398 18.3888 2.67777V3.54613C19.7517 4.08308 20.5 5.37366 20.5 7.2012V20.6695H17.9312V3.91737C17.5255 3.79624 17.1065 3.73674 16.686 3.74051C16.4019 3.73554 16.118 3.75793 15.8374 3.80743L14.5298 14.8571C14.3133 16.6958 13.443 17.9035 12.006 18.3624L11.8622 19.6753C11.8397 20.0482 11.684 20.3963 11.4287 20.6439C11.1736 20.8916 10.8395 21.0187 10.4993 20.9978ZM9.46622 18.4899L9.59846 19.6196C9.61231 19.8673 9.71467 20.099 9.88331 20.2645C10.0519 20.4301 10.2732 20.5161 10.4993 20.5038C10.6118 20.5127 10.7247 20.4967 10.8314 20.4568C10.9381 20.417 11.0365 20.354 11.1206 20.2717C11.2048 20.1894 11.273 20.0894 11.3212 19.9776C11.3695 19.8659 11.3968 19.7447 11.4016 19.6211L11.5338 18.4899C10.8492 18.6131 10.1508 18.6131 9.46622 18.4899ZM18.3888 20.1804H20.0423V7.206C20.0423 5.65727 19.4727 4.58816 18.3888 4.08945V20.1804ZM0.953324 20.1804H2.61115V4.08945C1.5287 4.58816 0.964948 5.65727 0.964948 7.206L0.953324 20.1804ZM5.64059 3.94605L6.92209 14.7918C7.10519 16.3612 7.78081 17.3761 8.92864 17.8191L7.74446 7.37012C7.5265 5.52821 6.83637 4.40333 5.64059 3.94605ZM15.3594 3.94605C14.1636 4.40333 13.4706 5.52822 13.2556 7.37168L12.0714 17.8127C13.2207 17.3698 13.8949 16.3548 14.0779 14.7854L15.3594 3.94605ZM3.06884 3.39158C3.47641 3.28289 3.89458 3.22938 4.31403 3.23224C4.57632 3.22921 4.83849 3.24624 5.09862 3.28323L5.02017 2.65705C4.91991 1.88907 4.5741 1.5003 3.99437 1.5003C3.41464 1.5003 3.06884 1.95121 3.06884 2.67617V3.39158ZM16.686 3.23224C17.1054 3.22938 17.5236 3.28289 17.9312 3.39158V2.68255C17.9312 1.95759 17.5767 1.50668 17.0056 1.50668C16.4346 1.50668 16.0801 1.89545 15.9799 2.66343L15.9014 3.2896C16.1615 3.25261 16.4237 3.23558 16.686 3.23862V3.23224Z" fill="#2D2D2D" stroke="#2D2D2D" stroke-width="0.5"/>
</svg>
